# This file uses centimeters as units for non-parametric coordinates.

mtllib Handle.mtl
g default
v -2.688499 10.497305 2.284635
v -2.410293 10.825292 1.956631
v -2.688499 11.502664 2.284635
v -2.410293 11.174647 1.956631
v -2.688499 11.502664 1.279306
v -2.410293 11.174647 1.607310
v -2.688499 10.497305 1.279306
v -2.410293 10.825292 1.607310
v -2.143063 10.825292 1.607310
v -2.143063 10.825292 1.956631
v -2.143063 11.174647 1.607310
v -2.143063 11.174647 1.956631
v -2.278773 10.825292 1.607310
v -2.278773 11.174647 1.607310
v -2.278773 11.174647 1.956631
v -2.278773 10.825292 1.956631
v -2.278774 10.825292 0.000000
v -2.278774 11.174647 0.000000
v -2.143064 11.174647 0.000000
v -2.143064 10.825292 0.000000
v -2.688499 10.497305 -2.284635
v -2.410293 10.825292 -1.956631
v -2.688499 11.502664 -2.284635
v -2.410293 11.174647 -1.956631
v -2.688499 11.502664 -1.279306
v -2.410293 11.174647 -1.607311
v -2.688499 10.497305 -1.279306
v -2.410293 10.825292 -1.607311
v -2.143063 10.825292 -1.607311
v -2.143063 10.825292 -1.956631
v -2.143063 11.174647 -1.607311
v -2.143063 11.174647 -1.956631
v -2.278773 10.825292 -1.607311
v -2.278773 11.174647 -1.607311
v -2.278773 11.174647 -1.956631
v -2.278773 10.825292 -1.956631
vt 0.254336 0.855010
vt 0.254336 0.778865
vt 0.330489 0.778865
vt 0.330489 0.855010
vt 0.254336 0.428501
vt 0.330489 0.428501
vt 0.330489 0.078137
vt 0.254336 0.078137
vt 0.254336 0.001992
vt 0.330489 0.001992
vt 0.337862 0.001992
vt 0.414015 0.001992
vt 0.414015 0.352356
vt 0.337862 0.352356
vt 0.337862 0.702720
vt 0.414015 0.702720
vt 0.217432 0.926509
vt 0.217432 0.850364
vt 0.247014 0.850364
vt 0.247014 0.926509
vt 0.188763 0.926509
vt 0.188762 0.850364
vt 0.217431 0.500000
vt 0.247014 0.500000
vt 0.128119 0.778865
vt 0.128119 0.998008
vt 0.247014 0.149636
vt 0.217432 0.149636
vt 0.217432 0.073491
vt 0.247014 0.073491
vt 0.188763 0.073491
vt 0.188763 0.149636
vt 0.128119 0.221135
vt 0.128119 0.001992
vt 0.091029 0.149636
vt 0.091029 0.073491
vt 0.120611 0.073491
vt 0.120611 0.149636
vt 0.062360 0.149636
vt 0.062360 0.073491
vt 0.120611 0.500000
vt 0.091028 0.500000
vt 0.001716 0.001992
vt 0.001716 0.221135
vt 0.091029 0.850364
vt 0.120611 0.850364
vt 0.120611 0.926509
vt 0.091029 0.926509
vt 0.062360 0.850364
vt 0.062360 0.926509
vt 0.001716 0.998008
vt 0.001716 0.778865
vt 0.510701 0.149640
vt 0.510701 0.073487
vt 0.540283 0.073487
vt 0.540283 0.149640
vt 0.482032 0.149640
vt 0.482032 0.073487
vt 0.421388 0.001992
vt 0.421388 0.221142
vt 0.608249 0.149647
vt 0.608249 0.073494
vt 0.636918 0.073494
vt 0.636918 0.149647
vt 0.547605 0.001992
vt 0.547605 0.221142
vt 0.733437 0.073494
vt 0.763020 0.073494
vt 0.763020 0.149647
vt 0.733437 0.149647
vt 0.704768 0.073494
vt 0.704768 0.149647
vt 0.644125 0.221142
vt 0.644125 0.001992
vt 0.830986 0.073487
vt 0.859655 0.073487
vt 0.859655 0.149640
vt 0.830986 0.149640
vt 0.770342 0.221142
vt 0.770342 0.001992
vn 0.762624 0.000000 0.646842
vn 0.762624 0.000000 0.646842
vn 0.762624 0.000000 0.646842
vn 0.762624 0.000000 0.646842
vn 0.762637 0.646827 -0.000000
vn 0.762637 0.646827 -0.000000
vn 0.762637 0.646827 -0.000000
vn 0.762637 0.646826 -0.000000
vn 0.762624 0.000000 -0.646842
vn 0.762624 0.000000 -0.646842
vn 0.762624 0.000000 -0.646842
vn 0.762624 0.000000 -0.646842
vn 0.762607 -0.646862 -0.000000
vn 0.762607 -0.646862 -0.000000
vn 0.762607 -0.646862 -0.000000
vn 0.762607 -0.646862 -0.000000
vn 1.000000 0.000000 0.000000
vn 1.000000 0.000000 -0.000000
vn 1.000000 0.000000 0.000000
vn 1.000000 0.000000 -0.000000
vn 0.000000 -1.000000 0.000000
vn 0.000000 -1.000000 0.000000
vn 0.000000 -1.000000 0.000000
vn 0.000000 -1.000000 0.000000
vn 0.000000 1.000000 -0.000000
vn 0.000000 1.000000 0.000000
vn 0.000000 1.000000 -0.000000
vn 0.000000 1.000000 0.000000
vn 0.000000 0.000000 1.000000
vn 0.000000 0.000000 1.000000
vn 0.000000 0.000000 1.000000
vn 0.000000 0.000000 1.000000
vn 0.000000 0.000000 -1.000000
vn 0.000000 0.000000 -1.000000
vn 0.000000 0.000000 -1.000000
vn 0.000000 0.000000 -1.000000
vn 0.000000 1.000000 0.000000
vn 0.000000 1.000000 0.000000
vn 0.000000 0.000000 1.000000
vn 0.000000 0.000000 1.000000
vn 0.000000 -1.000000 0.000000
vn 0.000000 -1.000000 0.000000
vn -1.000000 0.000000 0.000001
vn -1.000000 0.000000 0.000001
vn -1.000000 0.000000 -0.000000
vn -1.000000 0.000000 0.000000
vn 0.000000 1.000000 -0.000000
vn 0.000000 1.000000 -0.000000
vn 1.000000 0.000000 0.000000
vn 1.000000 0.000000 0.000000
vn 0.000000 -1.000000 0.000000
vn 0.000000 -1.000000 0.000000
vn 0.762624 0.000000 -0.646842
vn 0.762624 0.000000 -0.646842
vn 0.762624 0.000000 -0.646842
vn 0.762624 0.000000 -0.646842
vn 0.762637 0.646826 0.000000
vn 0.762637 0.646827 0.000000
vn 0.762637 0.646827 0.000000
vn 0.762637 0.646827 0.000000
vn 0.762624 0.000000 0.646842
vn 0.762624 0.000000 0.646842
vn 0.762624 0.000000 0.646842
vn 0.762625 0.000000 0.646842
vn 0.762607 -0.646862 0.000000
vn 0.762607 -0.646862 0.000000
vn 0.762607 -0.646862 0.000000
vn 0.762607 -0.646862 0.000000
vn 1.000000 0.000000 0.000000
vn 1.000000 0.000000 0.000000
vn 1.000000 0.000000 0.000000
vn 1.000000 0.000000 0.000000
vn 0.000000 -1.000000 0.000000
vn 0.000000 -1.000000 0.000000
vn 0.000000 -1.000000 0.000000
vn 0.000000 -1.000000 0.000000
vn 0.000000 1.000000 0.000000
vn 0.000000 1.000000 -0.000000
vn 0.000000 1.000000 0.000000
vn 0.000000 1.000000 0.000000
vn 0.000000 0.000000 -1.000000
vn 0.000000 0.000000 -1.000000
vn 0.000000 0.000000 -1.000000
vn 0.000000 0.000000 -1.000000
vn 0.000000 0.000000 1.000000
vn 0.000000 0.000000 1.000000
vn 0.000000 0.000000 1.000000
vn 0.000000 0.000000 1.000000
vn 0.000000 1.000000 0.000000
vn 0.000000 1.000000 0.000000
vn 0.000000 0.000000 -1.000000
vn 0.000000 0.000000 -1.000000
vn 0.000000 -1.000000 0.000000
vn 0.000000 -1.000000 0.000000
vn -1.000000 0.000000 -0.000001
vn -1.000000 0.000000 -0.000001
s 1
g pCube2
usemtl aiStandardSurface9SG
f 1/59/1 2/58/2 3/60/3
f 3/60/3 2/58/2 4/57/4
s 2
f 3/43/5 4/40/6 5/44/7
f 5/44/7 4/40/6 6/39/8
s 3
f 5/65/9 6/62/10 7/66/11
f 7/66/11 6/62/10 8/61/12
s 4
f 7/25/13 8/22/14 1/26/15
f 1/26/15 8/22/14 2/21/16
s 5
f 10/1/17 9/2/18 12/4/19
f 12/4/19 9/2/18 11/3/20
s 6
f 16/17/21 13/18/22 10/20/23
f 10/20/23 13/18/22 9/19/24
s 7
f 14/35/25 15/36/26 11/38/27
f 11/38/27 15/36/26 12/37/28
s 8
f 15/53/29 16/54/30 12/56/31
f 12/56/31 16/54/30 10/55/32
s 9
f 8/61/33 6/62/34 13/64/35
f 13/64/35 6/62/34 14/63/36
s 7
f 6/39/37 4/40/38 14/35/25
f 14/35/25 4/40/38 15/36/26
s 8
f 4/57/39 2/58/40 15/53/29
f 15/53/29 2/58/40 16/54/30
s 6
f 2/21/41 8/22/42 16/17/21
f 16/17/21 8/22/42 13/18/22
s 10
f 13/11/43 14/12/44 17/14/45
f 17/14/45 14/12/44 18/13/46
s 7
f 14/35/25 11/38/27 18/42/47
f 18/42/47 11/38/27 19/41/48
s 5
f 11/3/20 9/2/18 19/6/49
f 19/6/49 9/2/18 20/5/50
s 6
f 9/19/24 13/18/22 20/24/51
f 20/24/51 13/18/22 17/23/52
s 11
f 21/73/53 23/74/54 22/72/55
f 22/72/55 23/74/54 24/71/56
s 12
f 23/51/57 25/52/58 24/50/59
f 24/50/59 25/52/58 26/49/60
s 13
f 25/79/61 27/80/62 26/78/63
f 26/78/63 27/80/62 28/75/64
s 14
f 27/33/65 21/34/66 28/32/67
f 28/32/67 21/34/66 22/31/68
s 5
f 30/9/69 32/10/70 29/8/71
f 29/8/71 32/10/70 31/7/72
s 6
f 36/29/73 30/30/74 33/28/75
f 33/28/75 30/30/74 29/27/76
s 7
f 34/45/77 31/46/78 35/48/79
f 35/48/79 31/46/78 32/47/80
s 18
f 35/67/81 32/68/82 36/70/83
f 36/70/83 32/68/82 30/69/84
s 19
f 28/75/85 33/76/86 26/78/87
f 26/78/87 33/76/86 34/77/88
s 7
f 26/49/89 34/45/77 24/50/90
f 24/50/90 34/45/77 35/48/79
s 18
f 24/71/91 35/67/81 22/72/92
f 22/72/92 35/67/81 36/70/83
s 6
f 22/31/93 36/29/73 28/32/94
f 28/32/94 36/29/73 33/28/75
s 10
f 33/15/95 17/14/45 34/16/96
f 34/16/96 17/14/45 18/13/46
s 7
f 34/45/77 18/42/47 31/46/78
f 31/46/78 18/42/47 19/41/48
s 5
f 31/7/72 19/6/49 29/8/71
f 29/8/71 19/6/49 20/5/50
s 6
f 29/27/76 20/24/51 33/28/75
f 33/28/75 20/24/51 17/23/52
g default
v -2.688499 10.497305 2.284635
v -2.410293 10.825292 1.956631
v -2.688499 11.502664 2.284635
v -2.410293 11.174647 1.956631
v -2.688499 11.502664 1.279306
v -2.410293 11.174647 1.607310
v -2.688499 10.497305 1.279306
v -2.410293 10.825292 1.607310
v -2.143063 10.825292 1.607310
v -2.143063 10.825292 1.956631
v -2.143063 11.174647 1.607310
v -2.143063 11.174647 1.956631
v -2.278773 10.825292 1.607310
v -2.278773 11.174647 1.607310
v -2.278773 11.174647 1.956631
v -2.278773 10.825292 1.956631
v -2.278774 10.825292 0.000000
v -2.278774 11.174647 0.000000
v -2.143064 11.174647 0.000000
v -2.143064 10.825292 0.000000
v -2.688499 10.497305 -2.284635
v -2.410293 10.825292 -1.956631
v -2.688499 11.502664 -2.284635
v -2.410293 11.174647 -1.956631
v -2.688499 11.502664 -1.279306
v -2.410293 11.174647 -1.607311
v -2.688499 10.497305 -1.279306
v -2.410293 10.825292 -1.607311
v -2.143063 10.825292 -1.607311
v -2.143063 10.825292 -1.956631
v -2.143063 11.174647 -1.607311
v -2.143063 11.174647 -1.956631
v -2.278773 10.825292 -1.607311
v -2.278773 11.174647 -1.607311
v -2.278773 11.174647 -1.956631
v -2.278773 10.825292 -1.956631
vt 0.254336 0.855010
vt 0.254336 0.778865
vt 0.330489 0.778865
vt 0.330489 0.855010
vt 0.254336 0.428501
vt 0.330489 0.428501
vt 0.330489 0.078137
vt 0.254336 0.078137
vt 0.254336 0.001992
vt 0.330489 0.001992
vt 0.337862 0.001992
vt 0.414015 0.001992
vt 0.414015 0.352356
vt 0.337862 0.352356
vt 0.337862 0.702720
vt 0.414015 0.702720
vt 0.217432 0.926509
vt 0.217432 0.850364
vt 0.247014 0.850364
vt 0.247014 0.926509
vt 0.188763 0.926509
vt 0.188762 0.850364
vt 0.217431 0.500000
vt 0.247014 0.500000
vt 0.128119 0.778865
vt 0.128119 0.998008
vt 0.247014 0.149636
vt 0.217432 0.149636
vt 0.217432 0.073491
vt 0.247014 0.073491
vt 0.188763 0.073491
vt 0.188763 0.149636
vt 0.128119 0.221135
vt 0.128119 0.001992
vt 0.091029 0.149636
vt 0.091029 0.073491
vt 0.120611 0.073491
vt 0.120611 0.149636
vt 0.062360 0.149636
vt 0.062360 0.073491
vt 0.120611 0.500000
vt 0.091028 0.500000
vt 0.001716 0.001992
vt 0.001716 0.221135
vt 0.091029 0.850364
vt 0.120611 0.850364
vt 0.120611 0.926509
vt 0.091029 0.926509
vt 0.062360 0.850364
vt 0.062360 0.926509
vt 0.001716 0.998008
vt 0.001716 0.778865
vt 0.510701 0.149640
vt 0.510701 0.073487
vt 0.540283 0.073487
vt 0.540283 0.149640
vt 0.482032 0.149640
vt 0.482032 0.073487
vt 0.421388 0.001992
vt 0.421388 0.221142
vt 0.608249 0.149647
vt 0.608249 0.073494
vt 0.636918 0.073494
vt 0.636918 0.149647
vt 0.547605 0.001992
vt 0.547605 0.221142
vt 0.733437 0.073494
vt 0.763020 0.073494
vt 0.763020 0.149647
vt 0.733437 0.149647
vt 0.704768 0.073494
vt 0.704768 0.149647
vt 0.644125 0.221142
vt 0.644125 0.001992
vt 0.830986 0.073487
vt 0.859655 0.073487
vt 0.859655 0.149640
vt 0.830986 0.149640
vt 0.770342 0.221142
vt 0.770342 0.001992
vn 0.762624 0.000000 0.646842
vn 0.762624 0.000000 0.646842
vn 0.762624 0.000000 0.646842
vn 0.762624 0.000000 0.646842
vn 0.762637 0.646827 -0.000000
vn 0.762637 0.646827 -0.000000
vn 0.762637 0.646827 -0.000000
vn 0.762637 0.646826 -0.000000
vn 0.762624 0.000000 -0.646842
vn 0.762624 0.000000 -0.646842
vn 0.762624 0.000000 -0.646842
vn 0.762624 0.000000 -0.646842
vn 0.762607 -0.646862 -0.000000
vn 0.762607 -0.646862 -0.000000
vn 0.762607 -0.646862 -0.000000
vn 0.762607 -0.646862 -0.000000
vn 1.000000 0.000000 0.000000
vn 1.000000 0.000000 -0.000000
vn 1.000000 0.000000 0.000000
vn 1.000000 0.000000 -0.000000
vn 0.000000 -1.000000 0.000000
vn 0.000000 -1.000000 0.000000
vn 0.000000 -1.000000 0.000000
vn 0.000000 -1.000000 0.000000
vn 0.000000 1.000000 -0.000000
vn 0.000000 1.000000 0.000000
vn 0.000000 1.000000 -0.000000
vn 0.000000 1.000000 0.000000
vn 0.000000 0.000000 1.000000
vn 0.000000 0.000000 1.000000
vn 0.000000 0.000000 1.000000
vn 0.000000 0.000000 1.000000
vn 0.000000 0.000000 -1.000000
vn 0.000000 0.000000 -1.000000
vn 0.000000 0.000000 -1.000000
vn 0.000000 0.000000 -1.000000
vn 0.000000 1.000000 0.000000
vn 0.000000 1.000000 0.000000
vn 0.000000 0.000000 1.000000
vn 0.000000 0.000000 1.000000
vn 0.000000 -1.000000 0.000000
vn 0.000000 -1.000000 0.000000
vn -1.000000 0.000000 0.000001
vn -1.000000 0.000000 0.000001
vn -1.000000 0.000000 -0.000000
vn -1.000000 0.000000 0.000000
vn 0.000000 1.000000 -0.000000
vn 0.000000 1.000000 -0.000000
vn 1.000000 0.000000 0.000000
vn 1.000000 0.000000 0.000000
vn 0.000000 -1.000000 0.000000
vn 0.000000 -1.000000 0.000000
vn 0.762624 0.000000 -0.646842
vn 0.762624 0.000000 -0.646842
vn 0.762624 0.000000 -0.646842
vn 0.762624 0.000000 -0.646842
vn 0.762637 0.646826 0.000000
vn 0.762637 0.646827 0.000000
vn 0.762637 0.646827 0.000000
vn 0.762637 0.646827 0.000000
vn 0.762624 0.000000 0.646842
vn 0.762624 0.000000 0.646842
vn 0.762624 0.000000 0.646842
vn 0.762625 0.000000 0.646842
vn 0.762607 -0.646862 0.000000
vn 0.762607 -0.646862 0.000000
vn 0.762607 -0.646862 0.000000
vn 0.762607 -0.646862 0.000000
vn 1.000000 0.000000 0.000000
vn 1.000000 0.000000 0.000000
vn 1.000000 0.000000 0.000000
vn 1.000000 0.000000 0.000000
vn 0.000000 -1.000000 0.000000
vn 0.000000 -1.000000 0.000000
vn 0.000000 -1.000000 0.000000
vn 0.000000 -1.000000 0.000000
vn 0.000000 1.000000 0.000000
vn 0.000000 1.000000 -0.000000
vn 0.000000 1.000000 0.000000
vn 0.000000 1.000000 0.000000
vn 0.000000 0.000000 -1.000000
vn 0.000000 0.000000 -1.000000
vn 0.000000 0.000000 -1.000000
vn 0.000000 0.000000 -1.000000
vn 0.000000 0.000000 1.000000
vn 0.000000 0.000000 1.000000
vn 0.000000 0.000000 1.000000
vn 0.000000 0.000000 1.000000
vn 0.000000 1.000000 0.000000
vn 0.000000 1.000000 0.000000
vn 0.000000 0.000000 -1.000000
vn 0.000000 0.000000 -1.000000
vn 0.000000 -1.000000 0.000000
vn 0.000000 -1.000000 0.000000
vn -1.000000 0.000000 -0.000001
vn -1.000000 0.000000 -0.000001
s 1
g pCube2
f 37/139/97 38/138/98 39/140/99
f 39/140/99 38/138/98 40/137/100
s 2
f 39/123/101 40/120/102 41/124/103
f 41/124/103 40/120/102 42/119/104
s 3
f 41/145/105 42/142/106 43/146/107
f 43/146/107 42/142/106 44/141/108
s 4
f 43/105/109 44/102/110 37/106/111
f 37/106/111 44/102/110 38/101/112
s 5
f 46/81/113 45/82/114 48/84/115
f 48/84/115 45/82/114 47/83/116
s 6
f 52/97/117 49/98/118 46/100/119
f 46/100/119 49/98/118 45/99/120
s 7
f 50/115/121 51/116/122 47/118/123
f 47/118/123 51/116/122 48/117/124
s 8
f 51/133/125 52/134/126 48/136/127
f 48/136/127 52/134/126 46/135/128
s 9
f 44/141/129 42/142/130 49/144/131
f 49/144/131 42/142/130 50/143/132
s 7
f 42/119/133 40/120/134 50/115/121
f 50/115/121 40/120/134 51/116/122
s 8
f 40/137/135 38/138/136 51/133/125
f 51/133/125 38/138/136 52/134/126
s 6
f 38/101/137 44/102/138 52/97/117
f 52/97/117 44/102/138 49/98/118
s 10
f 49/91/139 50/92/140 53/94/141
f 53/94/141 50/92/140 54/93/142
s 7
f 50/115/121 47/118/123 54/122/143
f 54/122/143 47/118/123 55/121/144
s 5
f 47/83/116 45/82/114 55/86/145
f 55/86/145 45/82/114 56/85/146
s 6
f 45/99/120 49/98/118 56/104/147
f 56/104/147 49/98/118 53/103/148
s 11
f 57/153/149 59/154/150 58/152/151
f 58/152/151 59/154/150 60/151/152
s 12
f 59/131/153 61/132/154 60/130/155
f 60/130/155 61/132/154 62/129/156
s 13
f 61/159/157 63/160/158 62/158/159
f 62/158/159 63/160/158 64/155/160
s 14
f 63/113/161 57/114/162 64/112/163
f 64/112/163 57/114/162 58/111/164
s 5
f 66/89/165 68/90/166 65/88/167
f 65/88/167 68/90/166 67/87/168
s 6
f 72/109/169 66/110/170 69/108/171
f 69/108/171 66/110/170 65/107/172
s 7
f 70/125/173 67/126/174 71/128/175
f 71/128/175 67/126/174 68/127/176
s 18
f 71/147/177 68/148/178 72/150/179
f 72/150/179 68/148/178 66/149/180
s 19
f 64/155/181 69/156/182 62/158/183
f 62/158/183 69/156/182 70/157/184
s 7
f 62/129/185 70/125/173 60/130/186
f 60/130/186 70/125/173 71/128/175
s 18
f 60/151/187 71/147/177 58/152/188
f 58/152/188 71/147/177 72/150/179
s 6
f 58/111/189 72/109/169 64/112/190
f 64/112/190 72/109/169 69/108/171
s 10
f 69/95/191 53/94/141 70/96/192
f 70/96/192 53/94/141 54/93/142
s 7
f 70/125/173 54/122/143 67/126/174
f 67/126/174 54/122/143 55/121/144
s 5
f 67/87/168 55/86/145 65/88/167
f 65/88/167 55/86/145 56/85/146
s 6
f 65/107/172 56/104/147 69/108/171
f 69/108/171 56/104/147 53/103/148
